<?xml version="1.0" encoding="UTF-8" standalone="no"?>
<svg
   xmlns:dc="http://purl.org/dc/elements/1.1/"
   xmlns:cc="http://creativecommons.org/ns#"
   xmlns:rdf="http://www.w3.org/1999/02/22-rdf-syntax-ns#"
   xmlns:svg="http://www.w3.org/2000/svg"
   xmlns="http://www.w3.org/2000/svg"
   xmlns:sodipodi="http://sodipodi.sourceforge.net/DTD/sodipodi-0.dtd"
   xmlns:inkscape="http://www.inkscape.org/namespaces/inkscape"
   id="26e08365-e7f3-4f87-b2fd-e29738693ebb"
   data-name="Layer 1"
   width="999"
   height="797.25"
   viewBox="0 0 999 797.25"
   version="1.1"
   sodipodi:docname="register.svg"
   inkscape:version="0.92.5 (2060ec1f9f, 2020-04-08)">
  <metadata
     id="metadata9088">
    <rdf:RDF>
      <cc:Work
         rdf:about="">
        <dc:format>image/svg+xml</dc:format>
        <dc:type
           rdf:resource="http://purl.org/dc/dcmitype/StillImage" />
      </cc:Work>
    </rdf:RDF>
  </metadata>
  <sodipodi:namedview
     pagecolor="#ffffff"
     bordercolor="#666666"
     borderopacity="1"
     objecttolerance="10"
     gridtolerance="10"
     guidetolerance="10"
     inkscape:pageopacity="0"
     inkscape:pageshadow="2"
     inkscape:window-width="1366"
     inkscape:window-height="709"
     id="namedview9086"
     showgrid="false"
     inkscape:zoom="0.8372641"
     inkscape:cx="417.44086"
     inkscape:cy="253.59124"
     inkscape:window-x="0"
     inkscape:window-y="27"
     inkscape:window-maximized="1"
     inkscape:current-layer="g9115"
     showguides="false" />
  <defs
     id="defs8853">
    <linearGradient
       id="c24143ca-a0c1-48a5-a3b5-0343775bf348"
       x1="778.67"
       y1="845.35"
       x2="778.67"
       y2="329.26"
       gradientUnits="userSpaceOnUse">
      <stop
         offset="0"
         stop-color="gray"
         stop-opacity="0.25"
         id="stop8846" />
      <stop
         offset="0.54"
         stop-color="gray"
         stop-opacity="0.12"
         id="stop8848" />
      <stop
         offset="1"
         stop-color="gray"
         stop-opacity="0.1"
         id="stop8850" />
    </linearGradient>
  </defs>
  <title
     id="title8855">press play</title>
  <g
     inkscape:groupmode="layer"
     id="layer8"
     inkscape:label="BACK"
     sodipodi:insensitive="true">
    <path
       style="fill:#343a40;fill-opacity:1;stroke:#000000;stroke-width:1px;stroke-linecap:butt;stroke-linejoin:miter;stroke-opacity:0"
       d="M -4.7774651,799.63873 2.3887325,-0.5866712 1113.1494,1.8020613 C 1115.9321,400.54847 861.54305,721.91582 769.17188,799.63874 Z"
       id="path9216"
       inkscape:connector-curvature="0"
       sodipodi:nodetypes="ccccc" />
  </g>
  <g
     id="g9154"
     style="display:inline">
    <ellipse
       id="ellipse8985"
       ry="2.8900001"
       rx="45.040001"
       cy="470.70999"
       cx="170.24001"
       style="opacity:0.1" />
    <path
       id="path8987"
       transform="translate(-100.5,-51.37)"
       d="m 308.54,410.62 a 17.18,17.18 0 0 0 -2.28,4.29 c -0.14,0.38 -0.28,0.8 -0.42,1.21 a 3.69,3.69 0 0 0 -0.79,-0.27 11.34,11.34 0 0 0 -3.57,-0.31 c 0,-0.46 0.06,-1 0.07,-1.46 0.15,-5.27 -0.47,-12.62 -5.5,-9.51 -4.82,3 -1.38,8 1.73,11.21 l 0.8,0.78 c -2.84,2 -3.38,6.73 -3.85,11.64 -0.47,4.91 -4.64,10.29 -7.41,13.34 -0.28,0.31 -0.53,0.59 -0.78,0.85 a 10.11,10.11 0 0 0 -8.05,-2.07 c -0.11,-0.43 -0.24,-0.88 -0.37,-1.36 -2.24,-8.08 -6.89,-22.09 -12.82,-25.16 l 0.78,-1 c 2.52,-3.3 5.36,-8.19 1.17,-9.45 -4.19,-1.26 -4.57,4.25 -4.34,8.37 0,0.52 0.08,1 0.12,1.46 a 6.17,6.17 0 0 0 -4.38,2.14 L 258,414.56 c -3.4,-4 -9.63,-10.37 -11.52,-5.56 -1.76,4.48 3.73,10.29 7.59,13.66 l 0.24,0.21 c -2.59,10.53 8.69,19.13 14.81,22.85 l 0.79,0.48 c -8.4,9.9 -13.59,28.45 -13.59,28.45 l 23.52,4.2 c 0,0 15.6,-13.45 13.6,-26.09 h 0.16 c 15.59,-3.12 19.13,-19.74 16.7,-29.61 l 0.28,-0.11 a 17.74,17.74 0 0 0 7.22,-5.46 c 4.36,-6.07 -4.8,-12.91 -9.26,-6.96 z"
       inkscape:connector-curvature="0"
       style="fill:#e8caaf;fill-opacity:1" />
    <path
       id="path8989"
       transform="translate(-100.5,-51.37)"
       d="m 308.54,410.62 a 17.18,17.18 0 0 0 -2.28,4.29 c -0.14,0.38 -0.28,0.8 -0.42,1.21 a 3.69,3.69 0 0 0 -0.79,-0.27 11.34,11.34 0 0 0 -3.57,-0.31 c 0,-0.46 0.06,-1 0.07,-1.46 0.15,-5.27 -0.47,-12.62 -5.5,-9.51 -4.82,3 -1.38,8 1.73,11.21 l 0.8,0.78 c -2.84,2 -3.38,6.73 -3.85,11.64 -0.47,4.91 -4.64,10.29 -7.41,13.34 -0.28,0.31 -0.53,0.59 -0.78,0.85 a 10.11,10.11 0 0 0 -8.05,-2.07 c -0.11,-0.43 -0.24,-0.88 -0.37,-1.36 -2.24,-8.08 -6.89,-22.09 -12.82,-25.16 l 0.78,-1 c 2.52,-3.3 5.36,-8.19 1.17,-9.45 -4.19,-1.26 -4.57,4.25 -4.34,8.37 0,0.52 0.08,1 0.12,1.46 a 6.17,6.17 0 0 0 -4.38,2.14 L 258,414.56 c -3.4,-4 -9.63,-10.37 -11.52,-5.56 -1.76,4.48 3.73,10.29 7.59,13.66 l 0.24,0.21 c -2.59,10.53 8.69,19.13 14.81,22.85 l 0.79,0.48 c -8.4,9.9 -13.59,28.45 -13.59,28.45 l 23.52,4.2 c 0,0 15.6,-13.45 13.6,-26.09 h 0.16 c 15.59,-3.12 19.13,-19.74 16.7,-29.61 l 0.28,-0.11 a 17.74,17.74 0 0 0 7.22,-5.46 c 4.36,-6.07 -4.8,-12.91 -9.26,-6.96 z"
       inkscape:connector-curvature="0"
       style="opacity:0.1" />
    <path
       id="path8991"
       transform="translate(-100.5,-51.37)"
       d="m 261.72,417.4 -2.72,8.05 c 0,0 -1.53,-1.08 -3.46,-2.78 -3.86,-3.37 -9.35,-9.18 -7.59,-13.66 1.89,-4.81 8.12,1.54 11.52,5.56 1.34,1.59 2.25,2.83 2.25,2.83 z"
       inkscape:connector-curvature="0"
       style="fill:#e9c6af;fill-opacity:1" />
    <path
       id="path8993"
       transform="translate(-100.5,-51.37)"
       d="m 267.52,412.81 a 38.89,38.89 0 0 1 -2.68,3.15 42.22,42.22 0 0 1 -0.49,-4.23 c -0.23,-4.12 0.21,-9.59 4.34,-8.37 4.13,1.22 1.31,6.15 -1.17,9.45 z"
       inkscape:connector-curvature="0"
       style="fill:#e8caaf;fill-opacity:1" />
    <path
       id="path8995"
       transform="translate(-100.5,-51.37)"
       d="m 303,414.08 c -0.08,2.65 -0.34,4.76 -0.34,4.76 a 34,34 0 0 1 -3.43,-3.06 c -3.11,-3.23 -6.55,-8.21 -1.73,-11.21 5.02,-3.11 5.64,4.24 5.5,9.51 z"
       inkscape:connector-curvature="0"
       style="fill:#e9c6af;fill-opacity:1" />
    <path
       id="path8997"
       transform="translate(-100.5,-51.37)"
       d="M 319.24,417.55 A 17.74,17.74 0 0 1 312,423 a 20.18,20.18 0 0 1 -2.42,0.87 l -3.24,-4.55 a 33.05,33.05 0 0 1 1.34,-4.42 17.18,17.18 0 0 1 2.28,-4.29 c 4.5,-5.94 13.64,0.9 9.28,6.94 z"
       inkscape:connector-curvature="0"
       style="fill:#e8caaf;fill-opacity:1" />
    <path
       id="path8999"
       transform="translate(-100.5,-51.37)"
       d="m 259.44,414.57 c 1.37,1.59 2.28,2.83 2.28,2.83 l -2.72,8.05 c 0,0 -1.53,-1.08 -3.46,-2.78 a 15.75,15.75 0 0 1 3.1,-7.07 c 0.24,-0.37 0.53,-0.72 0.8,-1.03 z"
       inkscape:connector-curvature="0"
       style="opacity:0.1" />
    <path
       id="path9001"
       transform="translate(-100.5,-51.37)"
       d="m 267.52,412.81 a 38.89,38.89 0 0 1 -2.68,3.15 42.22,42.22 0 0 1 -0.49,-4.23 5.46,5.46 0 0 1 3.17,1.08 z"
       inkscape:connector-curvature="0"
       style="opacity:0.1" />
    <path
       id="path9003"
       transform="translate(-100.5,-51.37)"
       d="m 281,444.77 -6.84,3 c 0,0 -1.49,-0.72 -3.64,-2.06 -7.19,-4.43 -21.64,-15.56 -11.95,-28.68 9.69,-13.12 17.77,10.42 20.95,21.92 1.01,3.45 1.48,5.82 1.48,5.82 z"
       inkscape:connector-curvature="0"
       style="fill:#e9c6af;fill-opacity:1" />
    <path
       id="path9005"
       transform="translate(-100.5,-51.37)"
       d="m 299.22,415.78 a 5.57,5.57 0 0 1 3.77,-1.7 c -0.08,2.65 -0.34,4.76 -0.34,4.76 a 34,34 0 0 1 -3.43,-3.06 z"
       inkscape:connector-curvature="0"
       style="opacity:0.1" />
    <path
       id="path9007"
       transform="translate(-100.5,-51.37)"
       d="m 312,423 a 20.18,20.18 0 0 1 -2.42,0.87 l -3.24,-4.55 a 33.05,33.05 0 0 1 1.34,-4.42 c 2.11,1.24 3.65,4.27 4.32,8.1 z"
       inkscape:connector-curvature="0"
       style="opacity:0.1" />
    <path
       id="path9009"
       transform="translate(-100.5,-51.37)"
       d="m 295,452.73 -1.15,0.2 c -22.93,3.49 -7.56,-8.88 -7.56,-8.88 0,0 1,-0.95 2.43,-2.51 2.77,-3.05 6.93,-8.4 7.41,-13.34 0.72,-7.43 1.55,-14.4 10.32,-12.35 8.65,2.01 10.3,32.53 -11.45,36.88 z"
       inkscape:connector-curvature="0"
       style="fill:#e8caaf;fill-opacity:1" />
    <rect
       id="rect9011"
       height="11.52"
       width="43.810001"
       y="458.44"
       x="150.3"
       style="fill:#474157" />
    <rect
       id="rect9013"
       height="40.200001"
       width="57.240002"
       y="421"
       x="143.34"
       style="display:inline;fill:#474157" />
    <rect
       id="rect9015"
       height="11.52"
       width="43.810001"
       y="458.44"
       x="149.88"
       style="opacity:0.1" />
    <rect
       id="rect9017"
       height="40.200001"
       width="57.240002"
       y="421.01001"
       x="143.16"
       style="opacity:0.1" />
    <rect
       id="rect9019"
       height="11.52"
       width="43.810001"
       y="458.44"
       x="153.17999"
       style="display:inline;fill:#474157"
       sodipodi:insensitive="true" />
    <path
       id="path9021"
       transform="translate(-100.5,-51.37)"
       d="m 279.56,439 c 1,3.44 1.48,5.81 1.48,5.81 l -6.84,3 c 0,0 -1.49,-0.72 -3.64,-2.06 2.68,-3.43 5.7,-6 9,-6.75 z"
       inkscape:connector-curvature="0"
       style="display:inline;opacity:0.1"
       sodipodi:insensitive="true" />
    <path
       id="path9023"
       transform="translate(-100.5,-51.37)"
       d="m 295,452.73 -1.15,0.2 c -22.93,3.49 -7.56,-8.88 -7.56,-8.88 0,0 1,-0.95 2.43,-2.51 4.28,3.46 6.09,7.29 6.28,11.19 z"
       inkscape:connector-curvature="0"
       style="display:inline;opacity:0.1"
       sodipodi:insensitive="true" />
    <path
       id="path9025"
       transform="translate(-100.5,-51.37)"
       d="m 257.76,474.65 c 0,0 12.84,-46 30.85,-31.8 18.01,14.2 -7.33,36 -7.33,36 z"
       inkscape:connector-curvature="0"
       style="display:inline;fill:#e9c6af;fill-opacity:1"
       sodipodi:insensitive="true" />
    <circle
       id="circle9027"
       r="1.4400001"
       cy="372.87"
       cx="163.74001"
       style="display:inline;opacity:0.1"
       sodipodi:insensitive="true" />
    <circle
       id="circle9029"
       r="1.4400001"
       cy="379.60001"
       cx="163.62"
       style="display:inline;opacity:0.1"
       sodipodi:insensitive="true" />
    <circle
       id="circle9031"
       r="1.4400001"
       cy="374.19"
       cx="205.39"
       style="opacity:0.1"
       sodipodi:insensitive="true" />
    <circle
       id="circle9033"
       r="1.4400001"
       cy="408.64001"
       cx="171.78"
       style="opacity:0.1"
       sodipodi:insensitive="true" />
    <circle
       id="circle9035"
       r="1.4400001"
       cy="385.35999"
       cx="202.39"
       style="opacity:0.1"
       sodipodi:insensitive="true" />
    <circle
       id="circle9037"
       r="1.4400001"
       cy="400.23999"
       cx="187.50999"
       style="opacity:0.1"
       sodipodi:insensitive="true" />
    <circle
       id="circle9039"
       r="1.4400001"
       cy="375.75"
       cx="168.66"
       style="opacity:0.1"
       sodipodi:insensitive="true" />
    <circle
       id="circle9041"
       r="1.4400001"
       cy="378.51999"
       cx="201.42999"
       style="opacity:0.1"
       sodipodi:insensitive="true" />
    <circle
       id="circle9043"
       r="1.4400001"
       cy="389.67999"
       cx="196.50999"
       style="opacity:0.1"
       sodipodi:insensitive="true" />
    <circle
       id="circle9045"
       r="1.4400001"
       cy="407.56"
       cx="181.38"
       style="opacity:0.1"
       sodipodi:insensitive="true" />
    <circle
       id="circle9047"
       r="1.4400001"
       cy="400.48001"
       cx="178.25999"
       style="opacity:0.1"
       sodipodi:insensitive="true" />
    <circle
       id="circle9049"
       r="1.4400001"
       cy="384.51999"
       cx="170.82001"
       style="opacity:0.1"
       sodipodi:insensitive="true" />
    <rect
       id="rect9051"
       height="4.21"
       width="43.810001"
       y="458.44"
       x="153.17999"
       style="opacity:0.1"
       sodipodi:insensitive="true" />
    <rect
       id="rect9053"
       height="40.200001"
       width="57.240002"
       y="421"
       x="146.22"
       style="fill:#474157"
       sodipodi:insensitive="true" />
    <circle
       id="circle9055"
       r="1.4400001"
       cy="414.04001"
       cx="183.3"
       style="opacity:0.1"
       sodipodi:insensitive="true" />
    <circle
       id="circle9057"
       r="1.4400001"
       cy="415.84"
       cx="174.66"
       style="opacity:0.1"
       sodipodi:insensitive="true" />
  </g>
  <g
     id="g9115"
     style="display:inline">
    <path
       id="path9059"
       transform="translate(-100.5,-51.37)"
       d="m 412.39,626 c 0,0 7.13,9.33 -3.29,23.41 -10.42,14.08 -19,26 -15.56,34.76 0,0 15.74,-26.16 28.55,-26.52 12.81,-0.36 4.39,-15.91 -9.7,-31.65 z"
       inkscape:connector-curvature="0"
       style="fill:#e9c676;fill-opacity:1" />
    <path
       id="path9061"
       transform="translate(-100.5,-51.37)"
       d="m 412.39,626 a 11.49,11.49 0 0 1 1.46,2.92 C 426.34,643.6 433,657.3 420.99,657.65 409.8,658 396.38,678 393.16,683 c 0.11,0.39 0.24,0.78 0.38,1.15 0,0 15.74,-26.16 28.55,-26.52 12.81,-0.36 4.39,-15.89 -9.7,-31.63 z"
       inkscape:connector-curvature="0"
       style="opacity:0.1"
       sodipodi:insensitive="true" />
    <path
       id="path9063"
       transform="translate(-100.5,-51.37)"
       d="m 425.65,637.9 c 0,3.28 -0.37,5.94 -0.82,5.94 -0.45,0 -0.82,-2.66 -0.82,-5.94 0,-3.28 0.46,-1.74 0.91,-1.74 0.45,0 0.73,-1.55 0.73,1.74 z"
       inkscape:connector-curvature="0"
       style="fill:#ffd037" />
    <path
       id="path9065"
       transform="translate(-100.5,-51.37)"
       d="m 430.2,641.82 c -2.88,1.57 -5.39,2.52 -5.61,2.12 -0.22,-0.4 1.94,-2 4.83,-3.57 2.89,-1.57 1.74,-0.43 2,0 0.26,0.43 1.67,-0.12 -1.22,1.45 z"
       inkscape:connector-curvature="0"
       style="fill:#ffd037" />
    <path
       id="path9067"
       transform="translate(-100.5,-51.37)"
       d="m 374.7,626 c 0,0 -7.13,9.33 3.29,23.41 10.42,14.08 19,26 15.55,34.76 0,0 -15.73,-26.16 -28.54,-26.52 -12.81,-0.36 -4.39,-15.91 9.7,-31.65 z"
       inkscape:connector-curvature="0"
       style="fill:#e9c676;fill-opacity:1" />
    <path
       id="path9069"
       transform="translate(-100.5,-51.37)"
       d="m 374.7,626 a 11.49,11.49 0 0 0 -1.46,2.92 C 360.75,643.6 354.09,657.3 366.1,657.65 377.29,658 390.71,678 393.93,683 a 11.1,11.1 0 0 1 -0.39,1.15 c 0,0 -15.73,-26.15 -28.54,-26.49 -12.81,-0.34 -4.39,-15.92 9.7,-31.66 z"
       inkscape:connector-curvature="0"
       style="opacity:0.1"
       sodipodi:insensitive="true" />
    <path
       id="path9071"
       transform="translate(-100.5,-51.37)"
       d="m 361.44,637.9 c 0,3.28 0.37,5.94 0.82,5.94 0.45,0 0.82,-2.66 0.82,-5.94 0,-3.28 -0.46,-1.74 -0.91,-1.74 -0.45,0 -0.73,-1.55 -0.73,1.74 z"
       inkscape:connector-curvature="0"
       style="fill:#ffd037" />
    <path
       id="path9073"
       transform="translate(-100.5,-51.37)"
       d="m 356.89,641.82 c 2.88,1.57 5.39,2.52 5.61,2.12 0.22,-0.4 -1.94,-2 -4.83,-3.57 -2.89,-1.57 -1.74,-0.43 -2,0 -0.26,0.43 -1.67,-0.12 1.22,1.45 z"
       inkscape:connector-curvature="0"
       style="fill:#ffd037" />
    <ellipse
       id="ellipse9075"
       ry="11.45"
       rx="74.599998"
       cy="692.73999"
       cx="293.04001"
       style="opacity:0.1;fill:#e9c6af" />
    <path
       id="path9077"
       transform="translate(-100.5,-51.37)"
       d="m 431.94,671.61 -0.36,2.91 -0.5,4.12 -0.2,1.71 -0.51,4.12 -0.21,1.72 -0.5,4.11 -5.66,46.8 c -0.51,4.18 -7.34,7.43 -15.57,7.43 h -29.72 c -8.24,0 -15,-3.25 -15.56,-7.43 l -5.72,-46.8 -0.5,-4.11 -0.21,-1.72 -0.51,-4.12 -0.2,-1.71 -0.5,-4.12 -0.36,-2.91 c -0.29,-2.36 3.4,-4.36 8.07,-4.36 h 60.66 c 4.65,0 8.35,2 8.06,4.36 z"
       inkscape:connector-curvature="0"
       style="fill:#65617d" />
    <polygon
       id="polygon9079"
       points="331.08,623.15 330.58,627.26 255.51,627.26 255.01,623.15 "
       style="fill:#9d9cb5" />
    <polygon
       id="polygon9081"
       points="330.38,628.98 329.88,633.1 256.22,633.1 255.71,628.98 "
       style="fill:#9d9cb5" />
    <polygon
       id="polygon9083"
       points="329.66,634.81 329.16,638.93 256.93,638.93 256.43,634.81 "
       style="fill:#9d9cb5" />
  </g>
  <g
     inkscape:groupmode="layer"
     id="layer12"
     inkscape:label="back"
     style="display:inline"
     sodipodi:insensitive="true">
    <path
       style="opacity:0.1;fill:#dde9af"
       d="m 421.71,82.64 c 30.78,-27.43 79.11,-33 123.09,-30.84 138.16,6.87 262.87,73.56 370.74,149 39.05,27.31 77.5,56.74 102.85,94.35 51.6,76.57 36.3,182.63 -35.46,245.7 -24.41,21.46 -54,37.91 -84.39,52.5 -54,25.93 -112.31,46.74 -173.62,52.67 -43.73,4.22 -88,0.79 -131.46,-5.11 C 472,624.45 352.81,588 252.9,525.72 209.08,498.39 167.77,464.42 149.71,420.2 131.65,375.98 143.21,320 188,293.8 c 18.51,-10.82 40.64,-15.71 62.3,-20.3 31.89,-6.76 64.29,-13.42 93.06,-27.15 29.72,-14.19 64.92,-41.63 59,-73 C 396,139.63 391,110 421.71,82.64 Z"
       transform="translate(-100.5,-51.37)"
       id="path8857"
       inkscape:connector-curvature="0" />
    <circle
       style="opacity:0.1;fill:#dde9af"
       cx="174.08"
       cy="129.39999"
       r="31.5"
       id="circle8859" />
    <circle
       style="opacity:0.1;fill:#dde9af"
       cx="108.09"
       cy="54.400002"
       r="19.5"
       id="circle8861" />
    <circle
       style="opacity:0.1;fill:#dde9af"
       cx="925.57001"
       cy="114.4"
       r="12"
       id="circle8863" />
  </g>
  <g
     id="layer7"
     inkscape:label="table"
     inkscape:groupmode="layer"
     sodipodi:insensitive="true">
    <ellipse
       style="opacity:0.1;fill:#6c63ff"
       cx="689.91998"
       cy="788.84998"
       rx="84.239998"
       ry="8.3999996"
       id="ellipse8865"
       sodipodi:insensitive="true" />
    <polygon
       style="fill:#c8beb7"
       points="189.14,489.28 214,487.31 213.63,507.26 210.67,668.97 185.33,728.31 98,729.31 98,496.5 "
       id="polygon8867" />
    <polygon
       style="opacity:0.1"
       points="213.63,507.26 210.67,668.97 185.33,728.31 98,729.31 98,496.5 189.14,489.28 214,487.31 "
       id="polygon8869"
       sodipodi:insensitive="true" />
    <polygon
       style="fill:#c8beb7"
       points="189.14,489.28 214,487.31 213.63,507.26 210.67,668.97 185.33,728.31 192,507.64 191.98,507.5 "
       id="polygon8871" />
    <polygon
       style="opacity:0.1"
       points="213.63,507.26 191.98,507.5 98,508.55 98,496.5 189.14,489.28 214,487.31 "
       id="polygon8873"
       sodipodi:insensitive="true" />
    <polygon
       style="fill:#c8beb7"
       points="978.67,727.97 897.33,668.64 897.33,489.97 970,483.14 974.46,485.19 978.67,487.13 999,496.5 999,727.97 "
       id="polygon8875" />
    <rect
       style="opacity:0.1"
       x="978.66998"
       y="485.19"
       width="20.33"
       height="242.78"
       id="rect8877"
       sodipodi:insensitive="true" />
    <polygon
       style="opacity:0.1"
       points="978.67,498.73 897.33,499.63 897.33,489.97 970,483.14 974.46,485.19 978.67,487.13 978.67,485.19 999,485.19 999,498.5 "
       id="polygon8879"
       sodipodi:insensitive="true" />
    <polygon
       style="fill:#c8beb7"
       points="999,477.64 999,496.5 0,507.64 0,483.64 94,464.64 912,458.64 "
       id="polygon8881" />
    <polygon
       style="opacity:0.1"
       points="999,477.64 999,496.5 0,507.64 0,483.64 "
       id="polygon8883"
       sodipodi:insensitive="true" />
  </g>
  <g
     inkscape:groupmode="layer"
     id="layer10"
     inkscape:label="PC"
     style="display:inline"
     sodipodi:insensitive="true">
    <rect
       style="fill:#474157"
       x="365.5"
       y="194.97"
       width="349.92001"
       height="271.69"
       rx="22.82"
       ry="22.82"
       id="rect8885" />
    <rect
       style="fill:#ededf4"
       x="393.66"
       y="219.48"
       width="294.12"
       height="221.63"
       id="rect8887" />
    <circle
       style="fill:#e6e8ec"
       cx="382.17999"
       cy="330.29001"
       r="4.8200002"
       id="circle8889" />
    <circle
       style="fill:#e6e8ec"
       cx="700.81"
       cy="330.81"
       r="7.9499998"
       id="circle8891" />
    <text
       xml:space="preserve"
       style="font-style:normal;font-variant:normal;font-weight:normal;font-stretch:normal;font-size:52.63889313px;line-height:1.25;font-family:Chilanka;-inkscape-font-specification:Chilanka;letter-spacing:0px;word-spacing:0px;fill:#000000;fill-opacity:1;stroke:none;stroke-width:1.31597221"
       x="487.43143"
       y="325.07587"
       id="text11993"
       transform="matrix(0.8089873,-0.08466756,0.10914111,1.2246908,0,0)"><tspan
         sodipodi:role="line"
         id="tspan11991"
         x="487.43143"
         y="325.07587"
         style="font-style:normal;font-variant:normal;font-weight:normal;font-stretch:normal;font-size:71.32074738px;line-height:1.25;font-family:Chilanka;-inkscape-font-specification:Chilanka;stroke-width:1.31597221">Insat CP</tspan></text>
    <text
       xml:space="preserve"
       style="font-style:normal;font-variant:normal;font-weight:normal;font-stretch:normal;font-size:40px;line-height:1.25;font-family:new;-inkscape-font-specification:new;letter-spacing:0px;word-spacing:0px;fill:#000000;fill-opacity:1;stroke:none"
       x="1079.7072"
       y="462.82745"
       id="text11997"><tspan
         sodipodi:role="line"
         id="tspan11995"
         x="1079.7072"
         y="498.21808" /></text>
  </g>
  <g
     inkscape:groupmode="layer"
     id="layer9"
     inkscape:label="women"
     style="display:inline"
     sodipodi:insensitive="true">
    <path
       style="fill:url(#c24143ca-a0c1-48a5-a3b5-0343775bf348)"
       d="m 904.38,560.51 a 12.5,12.5 0 0 0 -1.13,-3.52 c 0.76,-2.59 1.25,-4.18 1.25,-4.18 0,0 0,-0.38 -0.12,-1 a 15.35,15.35 0 0 0 -15.55,-12.88 c -6,0.11 -17.38,0.51 -30,1.93 0.72,-5.05 1.58,-11.09 2.48,-17.31 l 1.65,0.18 c 0.38,0 0.78,0 1.18,0.06 h 0.53 a 5.44,5.44 0 0 0 3.66,-1.12 2.16,2.16 0 0 0 -0.67,-3.54 8.92,8.92 0 0 0 7.83,-3.28 7,7 0 0 0 0,-8.14 c -2.11,-3 -6.58,-5 -6.82,-8.53 -0.13,-2 1.21,-3.8 2.26,-5.57 a 23.27,23.27 0 0 0 -3.67,-27.95 54.76,54.76 0 0 0 -4.44,-3.95 c -2.2,-8.08 -4.5,-15.3 -5.18,-15.53 -0.88,-0.29 -2.39,-2.19 -3.83,-3.82 a 18.4,18.4 0 0 0 -0.07,-4.13 c -1.06,-7 -8,-12 -11.82,-18.18 -3.82,-6.18 -4.51,-13.75 -3.53,-20.83 0.98,-7.08 3.45,-13.93 5.46,-20.84 1.5,-5.13 2.75,-10.58 1.07,-15.67 -1.19,-3.63 -3.78,-6.77 -6.45,-9.72 -6.41,-7.09 -13.8,-13.73 -22.92,-18 a 45.55,45.55 0 0 0 -20.29,-4.34 h -0.07 l -1.1,0.06 -0.78,0.05 -0.78,0.08 -0.83,0.08 v 0 c -0.85,0.11 -1.69,0.24 -2.53,0.41 a 87.31,87.31 0 0 0 -18.55,-2.08 h -0.81 a 9.5,9.5 0 0 0 -5.3,1.25 c -2.22,1.55 -2.5,4.33 -3.17,6.75 a 18.73,18.73 0 0 1 -7.2,10 c -2.39,1.72 -5.2,3 -7.48,4.8 -2.28,1.8 -4.06,4.5 -3.45,7.16 0.51,2.23 2.59,3.89 5,4.9 -0.29,0.36 -0.59,0.71 -0.87,1.08 0.47,0.19 1,0.36 1.43,0.5 3,0.89 6.23,1 9.27,1.81 a 20.31,20.31 0 0 1 2.46,0.83 35.12,35.12 0 0 0 -4.11,16.52 35.59,35.59 0 0 0 18.62,31.22 c 0,0.34 0,0.67 0,1 0.31,10.44 -0.48,23.14 -5.82,25.29 -5.34,2.15 -10.45,4.58 -13.6,6.15 l -1,0.53 c -0.83,-0.38 -1.66,-0.78 -2.47,-1.2 0,0 -4.25,-0.5 -3.51,2.74 0,0 -12.85,-2 -19.9,3.49 -7.05,5.49 -18.62,16.95 -20.89,19.94 -2.27,2.99 -19.82,9.53 -19.82,9.53 0,0 5.53,-7.73 3.14,-17.2 0,0 -2.64,-11.42 -1.38,-16 1.26,-4.58 4.53,-21.58 4.53,-21.58 0,0 0.46,-17.94 -9.33,-26.17 -9.79,-8.23 -16.6,-15 -12.82,-7 a 111.46,111.46 0 0 0 5.54,10.71 c 0,0 -23.41,5.56 -15.1,14.24 8.31,8.68 10.57,8.69 10.57,8.69 0,0 -2.77,21.43 -3.28,25.42 -0.51,3.99 -5,34.39 -5,34.39 0,0 -0.25,14.46 2.27,16.7 0,0 1.65,9.31 12.08,9 0,0 19.88,-0.5 25.42,-2.74 5.54,-2.24 24.66,-14.21 26.68,-13.46 a 1.15,1.15 0 0 1 0.39,0.26 2.83,2.83 0 0 1 0.3,0.3 c -2,4.43 -6.74,19.47 -4.72,26.86 0,0 -1.76,20.93 8.81,27.66 0,0 15.35,25.92 9.56,39.87 -0.46,1.13 -0.87,2.17 -1.25,3.18 -8.79,-7.29 -22.2,-14 -42.68,-17.71 -2.09,-0.38 -4.17,-0.84 -6.23,-1.34 -5.82,-1.41 -21.83,-2.7 -29.45,22.61 a 111.36,111.36 0 0 1 -6.76,17.12 c -3,6.07 -6.33,14.77 -6.4,23.4 -0.17,12.1 6.08,24.09 28.76,28.49 0.25,9 1.28,19.72 4.36,27.43 6.29,15.7 16.36,41.12 16.36,41.12 0,0 12.08,25.92 12.84,36.38 0.49,6.85 1.21,15.83 0.71,22 0,0.38 -0.06,0.74 -0.1,1.1 a 26.52,26.52 0 0 1 -3.38,3.07 c -1.76,1 -7.55,7.23 -7.55,8.72 a 26.64,26.64 0 0 0 0.38,4.26 c -2.74,2.39 -4.24,5 -4.24,7.6 0,13.52 38.37,24.48 85.7,24.48 47.33,0 85.69,-11 85.69,-24.48 0,-12.34 -32,-22.54 -73.58,-24.22 8.67,-3.46 16.37,-7.09 19.56,-10 a 4.68,4.68 0 0 0 1.51,-2.06 l -8.05,-18.69 c 0,0 -0.63,0.14 -1.56,0.41 l -0.56,-0.84 c -3.58,-5.45 -10.47,-16.31 -10.47,-19.26 0,-1.09 -1.82,-8.06 -4.46,-17.61 V 698 c 26.26,4 60.1,-1.44 60.1,-1.44 l 0.15,-0.08 h 0.66 v -0.36 c 4.55,-2.52 27.31,-15.85 34.06,-33.53 2,-5.16 -0.49,-12.55 -5.44,-20.45 3.46,-8.59 12,-30.78 11.15,-39.63 0,-0.47 -0.06,-1 -0.06,-1.52 a 26.12,26.12 0 0 0 0.1,-2.72 c 1,-13 9,-36.75 9,-36.75 0,0 -0.05,-0.41 -0.15,-1.01 z m -170,-57.76 c 1.82,3.2 3.77,7.29 4.54,8.95 v 0 c 0,0 -2.66,-4.9 -4.49,-8.95 z m 1.9,280.1 -0.19,0.07 v -1 a 59.38,59.38 0 0 1 0.19,-7.82 9.16,9.16 0 0 0 -0.86,-4.06 96,96 0 0 1 -6.13,-24.13 c -1,-8.72 -1.83,-18.23 -1.31,-20.65 0.78,-3.71 1.42,-31.81 0.45,-45.66 l 15.48,3.48 18,36.7 c 0,0 11.58,17.92 15.17,32.06 V 766 a 34.6,34.6 0 0 1 -5.41,11.74 c -2.39,3.27 -4.72,6.58 -6.88,10 -0.66,1.06 -1.39,2.15 -2.12,3.17 -0.24,0 -12.07,0.69 -14.08,2.91 -1.24,1.37 -3.4,3.53 -3.76,5.7 l -0.51,0.08 c -2.32,-6.91 -7.99,-16.75 -7.99,-16.75 z"
       transform="translate(-100.5,-51.37)"
       id="path8895"
       inkscape:connector-curvature="0" />
    <path
       style="opacity:0.1"
       d="m 812.43,770 -4,13 -17,14.75 -25,7.18 c 0,0 -11.75,-6.43 -7.75,-7.68 1.11,-0.35 2.43,-1.62 3.77,-3.28 -1.4,5.1 9.73,-1.47 9.73,-1.47 0,0 28.75,-20.5 31.75,-22.75 a 22.61,22.61 0 0 1 6.4,-2.93 c 1.25,1.95 2.1,3.18 2.1,3.18 z"
       transform="translate(-100.5,-51.37)"
       id="path8897"
       inkscape:connector-curvature="0" />
    <path
       style="fill:#fdc2cc"
       d="m 812.43,770 -4,13 -17,14.75 -25,7.18 c 0,0 -11.75,-6.43 -7.75,-7.68 1.11,-0.35 2.43,-1.62 3.77,-3.28 a 50,50 0 0 0 3.34,-4.82 c 2.14,-3.44 4.46,-6.76 6.83,-10 a 36,36 0 0 0 6.31,-16.61 c 1.75,-13.75 -16,-41.5 -16,-41.5 l -32.25,-66.25 45,5.5 c 0,0 24.25,83.25 24.25,87.25 0,3 6.84,13.85 10.4,19.32 1.25,1.91 2.1,3.14 2.1,3.14 z"
       transform="translate(-100.5,-51.37)"
       id="path8899"
       inkscape:connector-curvature="0" />
    <ellipse
       style="fill:#5f5d7e"
       cx="686.96997"
       cy="771.04999"
       rx="85.120003"
       ry="24.549999"
       id="ellipse8901" />
    <path
       style="fill:#ff8080"
       d="m 820.43,786 a 4.8,4.8 0 0 1 -1.5,2.07 c -6.18,5.67 -29.29,14.1 -43.57,18.68 A 101.11,101.11 0 0 1 763.93,810 c -3.5,0.25 -10.75,-2 -15.75,-5.07 -5,-3.07 -0.5,-7.43 1.52,-9.68 2.02,-2.25 14,-2.92 14,-2.92 -5.75,9.57 8.49,1.17 8.49,1.17 0,0 28.75,-20.5 31.75,-22.75 3,-2.25 8.5,-3.5 8.5,-3.5 z"
       transform="translate(-100.5,-51.37)"
       id="path8903"
       inkscape:connector-curvature="0" />
    <path
       style="opacity:0.3;fill:#28220b"
       d="m 820.43,786 a 4.8,4.8 0 0 1 -1.5,2.07 c -6.18,5.67 -29.29,14.1 -43.57,18.68 A 101.11,101.11 0 0 1 763.93,810 c -3.5,0.25 -10.75,-2 -15.75,-5.07 -5,-3.07 -0.5,-7.43 1.52,-9.68 2.02,-2.25 14,-2.92 14,-2.92 -5.75,9.57 8.49,1.17 8.49,1.17 0,0 28.75,-20.5 31.75,-22.75 3,-2.25 8.5,-3.5 8.5,-3.5 z"
       transform="translate(-100.5,-51.37)"
       id="path8905"
       inkscape:connector-curvature="0"
       sodipodi:insensitive="true" />
    <path
       style="opacity:0.1"
       d="m 818.93,788.09 c -6.18,5.67 -29.29,14.1 -43.57,18.68 12.94,-10.96 34.64,-16.69 43.57,-18.68 z"
       transform="translate(-100.5,-51.37)"
       id="path8907"
       inkscape:connector-curvature="0"
       sodipodi:insensitive="true" />
    <ellipse
       style="opacity:0.1"
       cx="686.96997"
       cy="763.14001"
       rx="17.030001"
       ry="4.9099998"
       id="ellipse8909" />
    <rect
       style="fill:#5f5d7e"
       x="677.5"
       y="633.64001"
       width="17.5"
       height="129.5"
       id="rect8911" />
    <path
       style="opacity:0.1"
       d="m 795.5,691.43 v 15 C 792,705.35 784.01,700.8 778,697.22 V 685 h 3.65 z"
       transform="translate(-100.5,-51.37)"
       id="path8913"
       inkscape:connector-curvature="0" />
    <path
       style="fill:#474157"
       d="m 754.27,628.63 c 0,0 57.78,-14.87 72.16,-26 14.38,-11.13 70.85,41.24 63.39,61 -7.46,19.76 -34.62,34.07 -34.62,34.07 0,0 -75.11,12.22 -87.9,-13.27 -12.79,-25.49 -13.03,-55.8 -13.03,-55.8 z"
       transform="translate(-100.5,-51.37)"
       id="path8915"
       inkscape:connector-curvature="0" />
    <path
       style="opacity:0.1"
       d="m 754.27,628.63 c 0,0 57.78,-14.87 72.16,-26 14.38,-11.13 70.85,41.24 63.39,61 -7.46,19.76 -34.62,34.07 -34.62,34.07 0,0 -75.11,12.22 -87.9,-13.27 -12.79,-25.49 -13.03,-55.8 -13.03,-55.8 z"
       transform="translate(-100.5,-51.37)"
       id="path8917"
       inkscape:connector-curvature="0" />
    <path
       style="fill:#474157"
       d="m 749.27,622.63 c 0,0 57.78,-14.87 72.16,-26 14.38,-11.13 70.85,41.24 63.39,61 -7.46,19.76 -34.62,34.07 -34.62,34.07 0,0 -75.11,12.22 -87.9,-13.27 -12.79,-25.49 -13.03,-55.8 -13.03,-55.8 z"
       transform="translate(-100.5,-51.37)"
       id="path8919"
       inkscape:connector-curvature="0" />
    <path
       style="fill:#fdc2cc"
       d="M 695.68,486.27 689.43,484 c 0,0 5.5,-7.75 3.13,-17.25 0,0 -2.63,-11.46 -1.38,-16.1 1.25,-4.64 4.5,-21.65 4.5,-21.65 0,0 0.46,-18 -9.27,-26.25 -9.73,-8.25 -16.48,-15 -12.73,-7 a 111.4,111.4 0 0 0 5.5,10.75 c 0,0 -23.25,5.57 -15,14.29 8.25,8.72 10.5,8.71 10.5,8.71 0,0 -2.75,21.5 -3.25,25.5 -0.5,4 -5,34.5 -5,34.5 0,0 -0.25,14.5 2.25,16.75 a 11.31,11.31 0 0 0 12,9 c 1.78,-0.03 23,-23.48 15,-28.98 z"
       transform="translate(-100.5,-51.37)"
       id="path8921"
       inkscape:connector-curvature="0" />
    <path
       style="fill:#fdc2cc"
       d="m 846.68,440.27 v 14 l -14.5,4.73 -24.7,18.18 -6.55,4.82 -29.25,-11.75 -18.5,-19.5 c 0,0 0.9,-0.49 2.46,-1.3 l 1,-0.53 c 3.13,-1.57 8.06,-4 13.51,-6.17 5.45,-2.17 6.09,-14.89 5.78,-25.37 v -1 c -0.25,-7.35 -1,-13.36 -1,-13.36 0,0 3.05,-0.58 7.49,-1.24 12.31,-1.83 35.28,-4.3 33.26,3.24 a 17.37,17.37 0 0 0 0,7.79 c 0.06,0.28 0.12,0.57 0.19,0.85 2.08,9.09 8.52,18.61 8.52,18.61 l 20,7.2 0.56,0.2 z"
       transform="translate(-100.5,-51.37)"
       id="path8923"
       inkscape:connector-curvature="0" />
    <path
       style="fill:#fdc2cc"
       d="m 846.68,444.52 v -4.25 a 14,14 0 0 1 4.75,0 c 1.75,0.5 5.07,5.75 6.57,6.25 1.5,0.5 10.68,34.75 9.68,37.75 -1,3 -10.45,70.73 -10.45,70.73 l -19.05,21 -3.75,-57.75 12.25,-34.25 z"
       transform="translate(-100.5,-51.37)"
       id="path8925"
       inkscape:connector-curvature="0" />
    <path
       style="fill:#fdc2cc"
       d="m 747.93,601.77 c 0,0 -17.41,3.75 -15.2,9.25 2.21,5.5 11.95,5.75 11.95,5.75 z"
       transform="translate(-100.5,-51.37)"
       id="path8927"
       inkscape:connector-curvature="0" />
    <path
       style="fill:#fdc2cc"
       d="m 772.18,490.72 -13.25,28.55 -15.75,11.5 -2.75,-17.77 c 0,0 -5.32,-11.75 -7.61,-13.74 A 1.15,1.15 0 0 0 732.43,499 c -2,-0.75 -21,11.25 -26.5,13.5 -5.5,2.25 -25.25,2.75 -25.25,2.75 L 689.43,484 c 0,0 17.5,-6.5 19.75,-9.5 2.25,-3 13.75,-14.5 20.75,-20 7,-5.5 19.77,-3.5 19.77,-3.5 l 0.2,0.08 3.28,1.42 9.5,23.25 z"
       transform="translate(-100.5,-51.37)"
       id="path8929"
       inkscape:connector-curvature="0" />
    <path
       style="fill:#fdc2cc"
       d="m 737.43,775.52 a 59.64,59.64 0 0 0 -0.19,7.84 c 0.07,2.79 0.19,5.16 0.19,5.16 l -5.75,12 c 0,0 -19.75,6.5 -16.5,3.75 1.13,-0.95 1.71,-3.42 2,-6.69 0.49,-6.18 -0.22,-15.19 -0.71,-22.06 -0.75,-10.5 -12.75,-36.5 -12.75,-36.5 0,0 -10,-25.5 -16.25,-41.25 -6.25,-15.75 -4,-44.25 -4,-44.25 0,0 1,-21.5 5.5,-28 4.5,-6.5 22,-8.75 22,-8.75 l 8.21,27.23 c 0,0 6.75,25.5 9.25,29.25 2.5,3.75 1.75,48.5 0.75,53.25 -0.51,2.43 0.35,12 1.31,20.72 a 97.31,97.31 0 0 0 6.08,24.2 9.24,9.24 0 0 1 0.86,4.1 z"
       transform="translate(-100.5,-51.37)"
       id="path8931"
       inkscape:connector-curvature="0" />
    <path
       style="opacity:0.1"
       d="m 737.43,788.52 -5.75,12 c 0,0 -19.75,6.5 -16.5,3.75 1.13,-0.95 1.71,-3.42 2,-6.69 0.71,-0.71 1.47,-1.49 2.25,-2.29 a 50.49,50.49 0 0 1 17.85,-11.93 v 0 c 0.03,2.79 0.15,5.16 0.15,5.16 z"
       transform="translate(-100.5,-51.37)"
       id="path8933"
       inkscape:connector-curvature="0" />
    <path
       style="fill:#ff8080"
       d="m 746.45,806.38 a 0.59,0.59 0 0 1 0,0.14 c -1,4.75 -17.5,11.25 -17.5,11.25 0,0 -10.5,1.75 -16.5,3.25 a 4.15,4.15 0 0 1 -1.41,0.13 c -4.63,-0.35 -4.84,-9.26 -4.84,-10.63 0,-1.37 5.75,-7.75 7.5,-8.75 a 53.63,53.63 0 0 0 5.56,-5.33 51.6,51.6 0 0 1 18.22,-12.17 v 0 c 0,0 9.77,17.18 8.97,22.11 z"
       transform="translate(-100.5,-51.37)"
       id="path8935"
       inkscape:connector-curvature="0" />
    <path
       style="opacity:0.3;fill:#28220b"
       d="m 746.45,806.38 a 0.59,0.59 0 0 1 0,0.14 c -1,4.75 -17.5,11.25 -17.5,11.25 0,0 -10.5,1.75 -16.5,3.25 a 4.15,4.15 0 0 1 -1.41,0.13 c -4.63,-0.35 -4.84,-9.26 -4.84,-10.63 0,-1.37 5.75,-7.75 7.5,-8.75 a 53,53 0 0 0 5.64,-5.41 50.57,50.57 0 0 1 17.86,-12 l 0.28,-0.11 c 0,0 9.77,17.2 8.97,22.13 z"
       transform="translate(-100.5,-51.37)"
       id="path8937"
       inkscape:connector-curvature="0"
       sodipodi:insensitive="true" />
    <path
       style="opacity:0.1"
       d="m 746.45,806.38 a 0.59,0.59 0 0 1 0,0.14 c -1,4.75 -17.5,11.25 -17.5,11.25 0,0 -10.5,1.75 -16.5,3.25 a 4.15,4.15 0 0 1 -1.41,0.13 c 5.44,-3.73 18.63,-12.68 20.41,-12.88 1.78,-0.2 10.55,-2.72 15,-1.89 z"
       transform="translate(-100.5,-51.37)"
       id="path8939"
       inkscape:connector-curvature="0"
       sodipodi:insensitive="true" />
    <path
       style="opacity:0.1"
       d="m 815.91,413.66 c -6.18,5.09 -11.86,4.36 -20.49,4.36 -6.24,0 -14.35,2.19 -19.46,-0.62 -0.21,-7.81 -1,-14.38 -1,-14.38 0,0 43.5,-8.25 40.75,2 a 18.18,18.18 0 0 0 0.2,8.64 z"
       transform="translate(-100.5,-51.37)"
       id="path8941"
       inkscape:connector-curvature="0" />
    <path
       style="fill:#fdc2cc"
       d="m 828.93,385.06 a 35.75,35.75 0 0 1 -35.75,35.75 c -0.92,0 -1.84,0 -2.74,-0.1 v 0 a 35.75,35.75 0 1 1 38.5,-35.65 z"
       transform="translate(-100.5,-51.37)"
       id="path8943"
       inkscape:connector-curvature="0" />
    <path
       style="opacity:0.1"
       d="m 762.68,475.77 9.5,15 -13.25,28.55 -15.75,11.5 -2.75,-17.82 c 0,0 -5.32,-11.75 -7.61,-13.74 0.66,-1.61 1.11,-2.35 1.11,-1.76 0,2.5 6.15,13.75 6.15,13.75 19,-6.5 13.1,-31.75 13.1,-31.75 0,0 -2.36,-22.5 -3.28,-28.42 l 3.28,1.42 z"
       transform="translate(-100.5,-51.37)"
       id="path8945"
       inkscape:connector-curvature="0" />
    <path
       style="opacity:0.1"
       d="m 846.68,440.27 v 14 l -14.5,4.73 -24.7,18.18 -6.55,4.82 -29.25,-11.75 -18.5,-19.5 c 0,0 0.9,-0.49 2.46,-1.3 l 1,-0.53 c 12.87,5.85 26.8,8 36.75,8.77 a 111,111 0 0 0 13.76,0.31 c 37.67,-6 38.79,-15.1 37.85,-18.33 z"
       transform="translate(-100.5,-51.37)"
       id="path8947"
       inkscape:connector-curvature="0" />
    <path
       style="fill:#ff8080"
       d="m 857.43,667 a 280.29,280.29 0 0 1 -29,12.25 c -17.25,6.25 -55.25,-2 -60,-3.25 -4.75,-1.25 -41.25,-15.75 -55.25,-21.25 -14,-5.5 -17.5,-1 -20.75,-1.5 -3.25,-0.5 -5.5,-6.75 -6,-8.5 -0.5,-1.75 9,-17 14.25,-24.75 5.25,-7.75 21,-6.25 23.25,-6.75 2.25,-0.5 18,0 18,0 0,0 -1,-5 4.75,-19 5.75,-14 -9.5,-40 -9.5,-40 -10.5,-6.75 -8.75,-27.75 -8.75,-27.75 -2.5,-9.25 5.5,-30.5 5.5,-28 0,2.5 6.15,13.75 6.15,13.75 19,-6.5 13.1,-31.75 13.1,-31.75 0,0 -2.75,-26.25 -3.48,-29.5 -0.73,-3.25 3.48,-2.75 3.48,-2.75 q 1.22,0.63 2.46,1.2 c 13.16,6.2 27.56,8.46 37.78,9.24 a 111,111 0 0 0 13.76,0.31 c 45.67,-7.37 37.58,-19.12 37.28,-19.54 l 2.22,0.79 c 16.5,12 11.5,51.75 11.5,51.75 l -6.18,29.67 -4.59,22.1 c 0,0 16.25,98.5 17.75,103.5 1.5,5 -7.73,19.73 -7.73,19.73 z"
       transform="translate(-100.5,-51.37)"
       id="path8949"
       inkscape:connector-curvature="0" />
    <path
       style="opacity:0.1"
       d="m 735.68,622 c -1,0.75 -12.25,24 -4,30.5 8.25,6.5 4,-30.5 4,-30.5 z"
       transform="translate(-100.5,-51.37)"
       id="path8951"
       inkscape:connector-curvature="0" />
    <path
       style="opacity:0.1"
       d="m 743.68,625.27 c 0.25,0.75 23.5,37.75 36.25,40.75 z"
       transform="translate(-100.5,-51.37)"
       id="path8953"
       inkscape:connector-curvature="0" />
    <path
       style="opacity:0.1"
       d="m 799.69,332.48 -3.72,0.79 a 25.07,25.07 0 0 1 3.14,-0.93 z"
       transform="translate(-100.5,-51.37)"
       id="path8955"
       inkscape:connector-curvature="0" />
    <path
       style="opacity:0.1"
       d="m 855.71,492 -7,29.65 a 36.22,36.22 0 0 1 -9.72,-6.51 c -2.23,-2.12 -4.23,-4.55 -7.1,-5.94 -3.69,-1.79 -8.14,-1.55 -12.33,-1.7 a 59.32,59.32 0 0 1 -15.42,-2.64 10.88,10.88 0 0 1 -4,-1.94 c -2.38,-2.1 -2.22,-5.49 -2,-8.45 a 129.57,129.57 0 0 0 0.15,-17.29 c -0.06,-1.08 -0.14,-2.16 -0.23,-3.24 -0.4,-4.83 -1.7,-10.43 -6.64,-12.5 -2.54,-1 -5.57,-0.92 -8,-2.13 a 6.61,6.61 0 0 1 -1,-0.62 c -3.6,-2.52 -3.93,-7.57 -3.79,-11.82 q 0.32,-8.76 0.61,-17.53 a 50.94,50.94 0 0 0 -0.19,-8.65 v 0 a 19.21,19.21 0 0 0 -1.56,-5.52 c -2.17,-4.64 -6.69,-8.51 -7.5,-13.41 a 5.43,5.43 0 0 1 -0.09,-0.69 c -0.42,-4.38 2.34,-8.46 3.31,-12.77 1.94,-8.67 -4.58,-18.17 -14.17,-20.66 -3,-0.78 -6.22,-0.93 -9.21,-1.82 a 14.79,14.79 0 0 1 -1.41,-0.5 c 7.24,-9.66 19.65,-16 33.74,-16 22.33,0 40.44,16 40.44,35.75 0,11.2 -5.83,21.19 -14.94,27.75 0.06,0.28 0.13,0.57 0.21,0.85 2.35,9.09 9.64,18.61 9.64,18.61 l 22.64,7.2 2.52,0.8 c 18.7,11.99 13.04,51.72 13.04,51.72 z"
       transform="translate(-100.5,-51.37)"
       id="path8957"
       inkscape:connector-curvature="0" />
    <path
       style="opacity:0.1"
       d="m 868,520.72 c -0.22,0 -0.43,-0.05 -0.64,-0.09 a 1.33,1.33 0 0 1 0.64,0.09 z"
       transform="translate(-100.5,-51.37)"
       id="path8959"
       inkscape:connector-curvature="0" />
    <path
       style="fill:#474157"
       d="m 790.68,331.49 a 86,86 0 0 0 -19.08,-2.23 c -2.09,0 -4.33,0.11 -6,1.26 -2.21,1.55 -2.49,4.35 -3.15,6.77 a 18.78,18.78 0 0 1 -7.15,10 c -2.37,1.73 -5.16,3 -7.43,4.82 -2.27,1.82 -4,4.52 -3.43,7.18 0.57,2.66 3.56,4.71 6.56,5.56 3,0.85 6.19,1 9.21,1.82 9.59,2.49 16.1,12 14.16,20.65 -1,4.31 -3.73,8.39 -3.31,12.77 0.49,5.23 5.32,9.26 7.59,14.11 2.07,4.42 1.93,9.38 1.77,14.16 l -0.61,17.54 c -0.16,4.62 0.24,10.18 4.8,12.44 2.44,1.2 5.48,1.07 8,2.13 4.94,2.06 6.24,7.67 6.64,12.49 a 129.1,129.1 0 0 1 0.08,20.53 c -0.23,3 -0.39,6.35 2,8.45 a 10.72,10.72 0 0 0 4,1.94 59.32,59.32 0 0 0 15.42,2.64 c 4.2,0.16 8.64,-0.08 12.33,1.7 2.87,1.39 4.87,3.83 7.1,5.94 a 39.24,39.24 0 0 0 23.18,10.15 c 1.85,0.16 3.95,0.12 5.24,-1.07 1.29,-1.19 0.53,-3.76 -1.31,-3.61 a 8.89,8.89 0 0 0 8.42,-3.22 7.1,7.1 0 0 0 0,-8.17 c -2.09,-3 -6.53,-5 -6.77,-8.56 -0.13,-2 1.2,-3.81 2.24,-5.59 a 23.51,23.51 0 0 0 -3.64,-28 c -4.69,-4.85 -11.72,-8.53 -13.36,-14.75 -1.09,-4.16 0.56,-8.53 -0.07,-12.76 -1,-7 -7.93,-12 -11.74,-18.24 -3.81,-6.24 -4.48,-13.79 -3.51,-20.89 0.97,-7.1 3.43,-14 5.43,-20.9 1.49,-5.15 2.72,-10.62 1.06,-15.73 -1.19,-3.63 -3.75,-6.78 -6.41,-9.75 -6.37,-7.11 -13.7,-13.77 -22.76,-18 -9.06,-4.23 -20.1,-5.87 -29.72,-2.74"
       transform="translate(-100.5,-51.37)"
       id="path8961"
       inkscape:connector-curvature="0" />
    <path
       style="opacity:0.1"
       d="m 790.68,331.49 a 86,86 0 0 0 -19.08,-2.23 c -2.09,0 -4.33,0.11 -6,1.26 -2.21,1.55 -2.49,4.35 -3.15,6.77 a 18.78,18.78 0 0 1 -7.15,10 c -2.37,1.73 -5.16,3 -7.43,4.82 -2.27,1.82 -4,4.52 -3.43,7.18 0.57,2.66 3.56,4.71 6.56,5.56 3,0.85 6.19,1 9.21,1.82 9.59,2.49 16.1,12 14.16,20.65 -1,4.31 -3.73,8.39 -3.31,12.77 0.49,5.23 5.32,9.26 7.59,14.11 2.07,4.42 1.93,9.38 1.77,14.16 l -0.61,17.54 c -0.16,4.62 0.24,10.18 4.8,12.44 2.44,1.2 5.48,1.07 8,2.13 4.94,2.06 6.24,7.67 6.64,12.49 a 129.1,129.1 0 0 1 0.08,20.53 c -0.23,3 -0.39,6.35 2,8.45 a 10.72,10.72 0 0 0 4,1.94 59.32,59.32 0 0 0 15.42,2.64 c 4.2,0.16 8.64,-0.08 12.33,1.7 2.87,1.39 4.87,3.83 7.1,5.94 a 39.24,39.24 0 0 0 23.18,10.15 c 1.85,0.16 3.95,0.12 5.24,-1.07 1.29,-1.19 0.53,-3.76 -1.31,-3.61 a 8.89,8.89 0 0 0 8.42,-3.22 7.1,7.1 0 0 0 0,-8.17 c -2.09,-3 -6.53,-5 -6.77,-8.56 -0.13,-2 1.2,-3.81 2.24,-5.59 a 23.51,23.51 0 0 0 -3.64,-28 c -4.69,-4.85 -11.72,-8.53 -13.36,-14.75 -1.09,-4.16 0.56,-8.53 -0.07,-12.76 -1,-7 -7.93,-12 -11.74,-18.24 -3.81,-6.24 -4.48,-13.79 -3.51,-20.89 0.97,-7.1 3.43,-14 5.43,-20.9 1.49,-5.15 2.72,-10.62 1.06,-15.73 -1.19,-3.63 -3.75,-6.78 -6.41,-9.75 -6.37,-7.11 -13.7,-13.77 -22.76,-18 -9.06,-4.23 -20.1,-5.87 -29.72,-2.74"
       transform="translate(-100.5,-51.37)"
       id="path8963"
       inkscape:connector-curvature="0" />
    <path
       style="opacity:0.1"
       d="m 737.18,554.27 c 0,0 8.5,3.25 17.5,-5.75 9,-9 -17.5,5.75 -17.5,5.75 z"
       transform="translate(-100.5,-51.37)"
       id="path8965"
       inkscape:connector-curvature="0" />
    <g
       id="g8971"
       style="opacity:0.1">
      <path
         d="m 794.44,331.34 a 35.56,35.56 0 0 1 5,-0.63 37.93,37.93 0 0 0 -7,0.22 z"
         transform="translate(-100.5,-51.37)"
         id="path8967"
         inkscape:connector-curvature="0" />
      <path
         d="m 844.58,514.16 c -2.24,-2.11 -4.23,-4.55 -7.11,-5.94 -3.68,-1.78 -8.13,-1.54 -12.33,-1.7 a 59,59 0 0 1 -15.42,-2.64 10.72,10.72 0 0 1 -4,-1.94 c -2.38,-2.1 -2.21,-5.48 -2,-8.45 a 129.1,129.1 0 0 0 -0.08,-20.53 c -0.41,-4.82 -1.7,-10.43 -6.65,-12.49 -2.53,-1.06 -5.56,-0.93 -8,-2.13 -4.56,-2.26 -5,-7.82 -4.81,-12.44 q 0.31,-8.77 0.61,-17.53 c 0.17,-4.79 0.3,-9.75 -1.77,-14.17 -2.27,-4.85 -7.1,-8.87 -7.59,-14.11 -0.41,-4.37 2.35,-8.46 3.32,-12.77 1.94,-8.67 -4.58,-18.16 -14.17,-20.65 -3,-0.78 -6.22,-0.94 -9.21,-1.82 -2.99,-0.88 -5.89,-2.78 -6.51,-5.5 -0.62,-2.72 1.15,-5.36 3.42,-7.19 2.27,-1.83 5.06,-3.09 7.44,-4.82 a 18.71,18.71 0 0 0 7.14,-10 c 0.67,-2.42 1,-5.21 3.15,-6.77 a 8,8 0 0 1 4.1,-1.2 c -0.89,0 -1.78,-0.05 -2.66,-0.05 -2.09,0 -4.33,0.11 -6,1.25 -2.21,1.56 -2.49,4.35 -3.15,6.77 a 18.78,18.78 0 0 1 -7.15,10 c -2.37,1.73 -5.16,3 -7.43,4.82 -2.27,1.82 -4,4.52 -3.43,7.19 0.57,2.67 3.53,4.61 6.52,5.5 2.99,0.89 6.19,1 9.21,1.82 9.59,2.49 16.1,12 14.16,20.65 -1,4.31 -3.73,8.4 -3.31,12.77 0.49,5.24 5.32,9.26 7.59,14.11 2.07,4.42 1.94,9.38 1.77,14.17 q -0.31,8.76 -0.61,17.53 c -0.16,4.62 0.24,10.18 4.8,12.44 2.44,1.2 5.48,1.07 8,2.13 4.94,2.06 6.24,7.67 6.64,12.49 a 129.1,129.1 0 0 1 0.08,20.53 c -0.23,3 -0.39,6.35 2,8.45 a 10.72,10.72 0 0 0 4,1.94 58.91,58.91 0 0 0 15.42,2.64 c 4.2,0.16 8.64,-0.08 12.33,1.7 2.87,1.39 4.87,3.83 7.11,5.94 a 39.18,39.18 0 0 0 23.17,10.15 10.71,10.71 0 0 0 3.35,-0.13 39.11,39.11 0 0 1 -21.94,-10.02 z"
         transform="translate(-100.5,-51.37)"
         id="path8969"
         inkscape:connector-curvature="0" />
    </g>
    <path
       style="opacity:0.1"
       d="m 689.43,484 c 0,0 -8,7.34 -6.83,10.34 1.17,3 6.83,-10.34 6.83,-10.34 z"
       transform="translate(-100.5,-51.37)"
       id="path8973"
       inkscape:connector-curvature="0" />
    <path
       style="fill:#474157"
       d="m 696.85,578.35 c -5.77,-1.41 -21.68,-2.71 -29.25,22.68 a 112.32,112.32 0 0 1 -6.71,17.17 c -7.26,14.91 -16.64,45.57 24.61,52.32 l 99,22.5 c 0,0 53,6.5 56.5,4 3.5,-2.5 3,-8 3,-8 0,0 -58.5,0 -70,-18 -11.5,-18 -12,-42.5 -12,-42.5 0,0 1.44,-37.83 -59,-48.82 -2,-0.38 -4.1,-0.85 -6.15,-1.35 z"
       transform="translate(-100.5,-51.37)"
       id="path8975"
       inkscape:connector-curvature="0" />
    <path
       style="opacity:0.1"
       d="m 696.85,578.52 c -5.77,-1.41 -21.68,-2.71 -29.25,22.69 a 112.32,112.32 0 0 1 -6.71,17.17 c -7.26,14.9 -16.64,45.56 24.61,52.31 l 99,22.5 c 0,0 53,6.5 56.5,4 3.5,-2.5 3,-8 3,-8 0,0 -58.5,0 -70,-18 -11.5,-18 -12,-42.5 -12,-42.5 0,0 1.44,-37.83 -59,-48.82 -2,-0.38 -4.1,-0.87 -6.15,-1.35 z"
       transform="translate(-100.5,-51.37)"
       id="path8977"
       inkscape:connector-curvature="0" />
    <path
       style="fill:#474157"
       d="m 904.38,552.48 a 15.29,15.29 0 0 0 -15.45,-12.92 c -14.24,0.26 -58.07,2.16 -78.43,15.46 0,0 -15.5,10 -20,10 -4.5,0 -65.5,52 25,98.5 0,0 48.5,13.8 67.5,-18.6 0,0 13.5,-34.8 12.5,-46.85 -1,-12.05 9,-44.55 9,-44.55 0,0 -0.02,-0.39 -0.12,-1.04 z"
       transform="translate(-100.5,-51.37)"
       id="path8979"
       inkscape:connector-curvature="0" />
    <path
       style="opacity:0.1"
       d="m 904.38,561.24 c -1.14,-7 -7.8,-12.06 -15.45,-11.93 -14.24,0.24 -58.07,2 -78.43,14.27 0,0 -15.5,9.23 -20,9.23 -4.5,0 -65.5,48 25,90.93 0,0 48.5,12.74 67.5,-17.17 0,0 13.5,-32.13 12.5,-43.25 -1,-11.12 9,-41.12 9,-41.12 0,0 -0.02,-0.36 -0.12,-0.96 z"
       transform="translate(-100.5,-51.37)"
       id="path8981"
       inkscape:connector-curvature="0" />
    <rect
       style="fill:#5f5d7e"
       x="739.5"
       y="612.14001"
       width="16"
       height="34.07"
       id="rect8983" />
  </g>
</svg>
